<svg xmlns="http://www.w3.org/2000/svg" xmlns:xlink="http://www.w3.org/1999/xlink" width="624" height="433" viewBox="0 0 624 433"><defs><clipPath id="b"><rect width="624" height="433"/></clipPath></defs><g id="a" clip-path="url(#b)"><g transform="translate(42 92)"><g transform="translate(-58.62 -108.62)"><rect width="472" height="436.714" transform="translate(16.62 16.62)" fill="#dcf0ff"/></g><g transform="translate(-285.149 -24.798)"><g transform="translate(329.334 86.596)"><path d="M275.09,108.724l42.961,5.579,3.667-28.314C300.714,83.263,281.6,93.1,275.09,108.724Z" transform="translate(-105.501 -40.693)" fill="#92ceff"/><path d="M290.4,85.659l-3.667,28.314,42.95,5.571C327.393,102.79,311.436,88.382,290.4,85.659Z" transform="translate(-74.183 -40.362)" fill="#00649e"/><path d="M423.19,88.6c-21.846-7.682-58.288,17.179-86.926,55.757l102.492,36.014C453.659,137.949,437.746,93.726,423.19,88.6Z" transform="translate(59.031 -36.195)" fill="#b7281d"/><path d="M281.262,110.745a12.8,12.8,0,0,0-14.426,10.921l-7.42,53.458a17.5,17.5,0,1,0,25.355,3.505l7.409-53.458A12.785,12.785,0,0,0,281.262,110.745Z" transform="translate(-165.002 26.78)" fill="#ffdf5a"/><path d="M359.785,163.159a10.987,10.987,0,0,0-6.368-8.538l-5.051-37.6a5.845,5.845,0,1,0-11.585,1.568l5.051,37.586a11,11,0,1,0,17.954,6.981Z" transform="translate(60.274 30.363)" fill="#ffdf5a"/><path d="M275.627,87.921l-6.844,51.927,245.094,19.064,107.628,14.932.55-3.94C624.022,155.669,395.1,110.276,275.627,87.921Z" transform="translate(-122.464 -34.279)" fill="#ffdf5a"/><path d="M256.645,84.445l-7.785,59.033,73.507,5.719,6.844-51.927c-38.312-7.165-65.4-11.965-69.969-12.6C258.368,84.548,257.508,84.5,256.645,84.445Z" transform="translate(-176.048 -43.627)" fill="#92ceff"/><path d="M274.418,102l-7.73,58.778c108.964,5.881,308.651,9.228,359.3-15.681l1.147-9.1L519.512,121.059Z" transform="translate(-128.098 3.574)" fill="#eab828"/><path d="M254.839,100.445l-8.2,59.125c.852.181,1.686.354,2.564.487,4.951.694,32.409,2.786,71.415,4.885l7.73-58.778Z" transform="translate(-182.027 -0.594)" fill="#00649e"/><path d="M279.764,84.505c-17.776-1.122-32.94,9.279-35.423,27.2l-4.077,29.369,31.715,2.465Z" transform="translate(-199.168 -43.688)" fill="#595858"/><path d="M266.375,161.367l8.2-59.125-31.715-2.465-3.232,23.311A34.35,34.35,0,0,0,266.375,161.367Z" transform="translate(-201.765 -2.391)" fill="#1c1c1c"/><path d="M411.893,108.8c-56.443-5.745-75.765-2.413-76.429,4.059L483.8,127.962C484.46,121.509,468.348,114.569,411.893,108.8Z" transform="translate(56.879 13.931)" fill="#e54b42"/><path d="M409.533,127.116c56.428,5.759,73.614,2.206,74.275-4.265L335.476,107.746C334.83,114.2,353.079,121.368,409.533,127.116Z" transform="translate(56.867 19.042)" fill="#b7281d"/><path d="M261.512,95.089l-7.014-.978a18.689,18.689,0,0,0-21.082,15.946l25.532,3.535Z" transform="translate(-217.586 -18.114)" fill="#e54b42"/><path d="M249.49,119.377l7.01.974,2.579-18.514L233.548,98.3A18.679,18.679,0,0,0,249.49,119.377Z" transform="translate(-217.718 -6.358)" fill="#b7281d"/><path d="M239.868,166.171l15.286-85.048a6.8,6.8,0,0,0-13.474-1.878l-8.372,86.019Z" transform="translate(-217.876 -73.382)" fill="#595858"/><path d="M251.117,99.193,242.661,185.2a6.8,6.8,0,1,1-13.471-1.867l15.367-85.052Z" transform="translate(-229.125 -6.404)" fill="#1c1c1c"/><g transform="translate(171.498 45.634)"><rect width="183.464" height="11.464" transform="matrix(0.594, -0.804, 0.804, 0.594, 0, 147.561)" fill="#e54b42"/></g><g transform="translate(179.056 26.347)"><rect width="11.454" height="190.611" transform="matrix(0.874, -0.485, 0.485, 0.874, 0, 5.559)" fill="#b7281d"/></g><path d="M463.02,136.426,279.6,98.294a11.711,11.711,0,1,1,4.756-22.934C290.691,76.684,413.436,102.2,463.02,136.426Z" transform="translate(-118.479 -68.726)" fill="#595858"/><path d="M426.7,131.9l-145.45-8.375a9.1,9.1,0,0,0-1.048,18.175C285.232,141.98,382.559,147.6,426.7,131.9Z" transform="translate(-114.794 61.426)" fill="#1c1c1c"/><path d="M289.285,122.237A36.448,36.448,0,1,0,320.4,163.346,36.421,36.421,0,0,0,289.285,122.237Zm-7.4,53.432a17.506,17.506,0,1,1,19.735-14.935A17.488,17.488,0,0,1,281.888,175.669Z" transform="translate(-178.822 57.065)" fill="#00649e"/><path d="M353.693,120.216A22.943,22.943,0,1,0,379.476,139.9,22.923,22.923,0,0,0,353.693,120.216Zm4.523,33.649a11.011,11.011,0,1,1,9.449-12.371A10.994,10.994,0,0,1,358.217,153.865Z" transform="translate(52.394 52.027)" fill="#00649e"/></g></g></g></g></svg>