<svg xmlns="http://www.w3.org/2000/svg" xmlns:xlink="http://www.w3.org/1999/xlink" width="258" height="330" viewBox="0 0 258 330"><defs><clipPath id="b"><rect width="258" height="330"/></clipPath></defs><g id="a" clip-path="url(#b)"><g transform="translate(-248.318 -426.824)"><path d="M333.635,431.888a14.8,14.8,0,0,0-9.482-3.778,11.161,11.161,0,0,0-8.456,3.778,12.176,12.176,0,0,0-2.906,9.525c.1.843.238,1.713.373,2.6.461,2.9.936,5.9-.112,7.719-2.419,4.208-4.362,4.4-7.054,4.654-2.248.221-5.058.494-7.812,3.3-4.01,4.1-2.925,8.577-2.048,12.176.744,3.077,1.39,5.733-.416,8.413-2.956,4.381-12.568,6.149-16.077,6.149l36.811,19.014,17.241.074S333.7,431.847,333.635,431.888Z" transform="translate(43.103)" fill="#595858"/><path d="M356.45,486.427c-3.507,0-13.119-1.768-16.075-6.149-1.806-2.68-1.162-5.336-.416-8.413.874-3.6,1.965-8.078-2.046-12.176-2.758-2.808-5.564-3.081-7.814-3.3-2.694-.259-4.633-.447-7.054-4.654-1.045-1.818-.575-4.821-.116-7.719.143-.889.278-1.758.378-2.6a12.13,12.13,0,0,0-2.9-9.484,11.309,11.309,0,0,0-8.546-3.818,14.845,14.845,0,0,0-9.46,3.737v73.667l16.868.074Z" transform="translate(74.404)"/><path d="M326.842,482.771V472.3c3.126-6.8,5.873-11.558,5.873-20.031,0-12.725-4.98-18.462-14.82-18.462-9.86.031-15.683,5.761-15.683,18.462,0,8.472,3.269,14.141,6.609,20.031v10.47l-17.64,5.365V511.8h17.64v.6h18.021v-.6h17.64V488.136Z" transform="translate(58.972 7.84)" fill="#e54b42"/><path d="M376.8,566.381c-55.991,0-103.593-13.507-121.193-32.33-4.706,12.682-7.291,22.972-7.291,28.6,0,26.74,57.528,48.412,128.484,48.412S505.3,589.4,505.3,562.656c0-5.633-2.583-15.923-7.289-28.6C480.4,552.875,432.8,566.381,376.8,566.381Z" transform="translate(0 145.756)" fill="#e54b42"/><path d="M372.58,554.337c-50.3,0-93.828-10.9-114.918-26.761-2.388,5.391-4.486,10.558-6.275,15.384,17.6,18.824,65.2,32.33,121.193,32.33s103.6-13.507,121.2-32.33c-1.791-4.825-3.889-9.993-6.277-15.384C466.415,543.439,422.9,554.337,372.58,554.337Z" transform="translate(4.222 136.847)" fill="#ffdf5a"/><path d="M263.978,518.94c-3.716,7.035-7.044,13.944-9.95,20.518,21.09,15.863,64.615,26.761,114.918,26.761s93.835-10.9,114.928-26.761c-2.9-6.574-6.236-13.483-9.95-20.518-23.269,12.409-61.593,20.518-104.978,20.518S287.247,531.349,263.978,518.94Z" transform="translate(7.856 124.966)" fill="#e54b42"/><path d="M363.185,528.073c-37.985,0-72.111-6.208-95.632-16.089-3.338,5.519-6.446,11.055-9.337,16.526,23.269,12.409,61.6,20.518,104.969,20.518s81.709-8.109,104.978-20.518c-2.889-5.471-6-11.007-9.339-16.526C435.3,521.865,401.183,528.073,363.185,528.073Z" transform="translate(13.618 115.396)" fill="#ffdf5a"/><path d="M453.416,556.178c-23.518-38.887-57.64-76.316-95.639-76.316s-72.111,37.429-95.632,76.316c23.521,9.881,57.647,16.089,95.632,16.089S429.9,566.059,453.416,556.178Z" transform="translate(19.025 71.201)" fill="#e54b42"/><path d="M328.512,464.759l-6.767-7.06L262.2,514.907l5.136,6.362Z" transform="translate(19.093 40.709)" fill="#e54b42"/><path d="M251.035,502.321l3.872,4.032,11.587-11.383,16.07-6.958-5.014-6.234-17.7,6.267Z" transform="translate(3.738 73.838)" fill="#eab828"/><path d="M314.691,464.759l6.779-7.06,59.548,57.208-5.142,6.362Z" transform="translate(91.317 40.709)" fill="#b7281d"/><path d="M372.022,502.321l-3.872,4.032-11.591-11.383-16.06-6.958,5.014-6.234,17.7,6.267Z" transform="translate(126.823 73.838)" fill="#eab828"/><path d="M341.152,502.2V481.015a20.146,20.146,0,0,0-18.284-11.782c-.183,0-.368.05-.551.05A16.74,16.74,0,0,0,293.835,458L279.278,472.26a16.794,16.794,0,1,0,23.5,23.993l9.491-9.3L315.1,502.2l1.067,5.711,3.157,11.031c0,5.065,9.876,9.183,22.078,9.183V502.2Z" transform="translate(35.651 34.521)" fill="#ffdf5a"/><path d="M364.283,472.26,349.734,458a16.743,16.743,0,0,0-28.488,11.3c-.23-.01-.444-.064-.677-.064a19.917,19.917,0,0,0-18.17,11.782V502.2h.254v25.925c12.2,0,22.081-4.117,22.081-9.183l3.293-11.3.922-5.445,2.544-15.048,9.294,9.1a16.791,16.791,0,1,0,23.5-23.993Z" transform="translate(74.404 34.521)" fill="#eab828"/></g></g></svg>