<svg xmlns="http://www.w3.org/2000/svg" xmlns:xlink="http://www.w3.org/1999/xlink" width="346" height="334" viewBox="0 0 346 334"><defs><clipPath id="b"><rect width="346" height="334"/></clipPath></defs><g id="a" clip-path="url(#b)"><g transform="translate(-239.599 -241.715)"><rect width="21.707" height="44.554" transform="translate(363.158 412.952)" fill="#e54b42"/><rect width="21.707" height="21.583" transform="translate(363.158 374.664)" fill="#e54b42"/><rect width="21.707" height="16.706" transform="translate(363.158 396.247)" fill="#20ae76"/><rect width="5.138" height="239.514" transform="translate(407.639 241.715)" fill="#ffdf5a"/><rect width="5.139" height="239.514" transform="translate(412.777 241.715)" fill="#eab828"/><path d="M408.023,352.262c.055-.822.115-1.652.115-2.5V337.182c0-17.564-13.031-31.8-29.119-31.8H352.937c-14.948,0-27.254,12.314-28.914,28.155H308.047c-13.267,0-24.433,9.7-27.953,22.949h127.95Z" transform="translate(70.416 110.704)" fill="#20ae76"/><path d="M279.669,338.082h129.2l-.088-14.042H280.836a34.614,34.614,0,0,0-1.167,8.849Z" transform="translate(69.675 143.149)" fill="#18855a"/><path d="M247.9,415.619h14.019l131.3-141.514V258.991Z" transform="translate(14.427 30.04)" fill="#ffdf5a"/><path d="M450.021,415.619H436L304.706,274.106V258.991Z" transform="translate(113.21 30.04)" fill="#eab828"/><path d="M497.536,325.916l-1.6,9.137h-171.3l-1.542-9.137H240.149a93.292,93.292,0,0,0,9.312,27.29H571.816a93.211,93.211,0,0,0,9.312-27.29Z" transform="translate(0.956 146.411)" fill="#e54b42"/><path d="M400.783,403.868c68.222,0,127.164-24,154.971-64.234H245.817C273.624,379.87,332.561,403.868,400.783,403.868Z" transform="translate(10.812 170.264)" fill="#b7281d"/><path d="M418.1,326.009c0-3.308-.225-6.581-.54-9.83H337.645l-2.865,16.389h83.091C418.016,330.407,418.1,328.219,418.1,326.009Z" transform="translate(165.504 129.48)" fill="#e54b42"/><path d="M319.559,316.179H240.128c-.315,3.248-.529,6.521-.529,9.83,0,2.21.077,4.4.214,6.56h82.5Z" transform="translate(0 129.48)" fill="#e54b42"/><path d="M417.718,332.442a94.724,94.724,0,0,0,1.29-10.279H335.917l-1.791,10.279Z" transform="translate(164.367 139.885)" fill="#ffdf5a"/><path d="M322.182,322.163h-82.5a96.14,96.14,0,0,0,1.293,10.279h82.948Z" transform="translate(0.136 139.885)" fill="#ffdf5a"/><path d="M249.761,346.162H559.7A99.473,99.473,0,0,0,565.9,335.88H243.549A99.047,99.047,0,0,0,249.761,346.162Z" transform="translate(6.868 163.736)" fill="#ffdf5a"/><path d="M315.965,310.508c-7.595,0-14.017,6.7-14.951,15.573l-.058,17.06,32.633-32.633Z" transform="translate(106.69 119.619)" fill="#92ceff"/><path d="M340.687,311.453l-34.468,34.474h41.66l-.03-4.664.041-.531c.033-.507.077-1.011.077-1.526V326.623A18.572,18.572,0,0,0,340.687,311.453Z" transform="translate(115.841 121.262)" fill="#92ceff"/><path d="M342.045,310.508h-8.452l-32.633,32.633-.005,4.429h14.42L349.842,313.1A13.289,13.289,0,0,0,342.045,310.508Z" transform="translate(106.686 119.619)" fill="#dcf0ff"/><path d="M365.079,241.715H304.706l30.182,23.656Z" transform="translate(113.21 0)" fill="#ffdf5a"/><path d="M304.706,241.715v47.316l30.182-23.66Z" transform="translate(113.21 0)" fill="#d9453b"/><path d="M304.706,274.012h60.373l-30.191-23.66Z" transform="translate(113.21 15.019)" fill="#18855a"/><path d="M315.726,265.371l30.191,23.66V241.715Z" transform="translate(132.372 0)" fill="#5698d8"/></g></g></svg>