<svg xmlns="http://www.w3.org/2000/svg" xmlns:xlink="http://www.w3.org/1999/xlink" width="339" height="349" viewBox="0 0 339 349"><defs><clipPath id="b"><rect width="339" height="349"/></clipPath></defs><g id="a" clip-path="url(#b)"><g transform="translate(-630.842 -231.012)"><path d="M724.452,387.7c14.637,0,26.487-39,26.487-87.212-44.326-48.661-124.777-14.456-119.479,87.212Z" transform="translate(0.654 65.089)" fill="#595858"/><path d="M761.885,298.442a26.643,26.643,0,0,1-5.661,6.763l-7.427-3.43v8a26.231,26.231,0,0,1-7.829,1.909v-22.94Z" transform="translate(195.499 83.008)" fill="#e54b42"/><path d="M778.393,241.984c27.217,0,50.426,12.336,67.238,35.7l16.49,28.807-32.659,26.931-12.222-25.357c-6.214-12.9-19.244-20.309-35.748-20.309-9.983,0-36.483,0-46.768,81.3l-1.737,13.671H692.325l6.438-15.638C688.587,283.471,735.336,242.2,778.393,241.984Z" transform="translate(109.147 0)" fill="#595858"/><path d="M701.95,329.619c5.048-34.491,15.466-57.175,26.981-69.8L770.1,332.291C750,336.868,722.315,338.3,701.95,329.619Z" transform="translate(126.233 31.656)" fill="#e54b42"/><path d="M714.5,270.313c14.506-11.229,29.665-12.075,38.537-12.075,2.617-5.65,6.766-9.158,10.6-8.337,4.121.88,6.511,6.516,6.194,13.429a45.931,45.931,0,0,1,21.436,21.589c4.4,9.136,6.291,19.835,5.806,31.074l3.328,6.969c-10.069,9.616-26.243,19.182-42.2,24.278Z" transform="translate(148.505 13.844)" fill="#e54b42"/><path d="M778.98,283.633l2.98,6.261a26.615,26.615,0,0,1-.969,24.808L760.075,305v22.94A26.667,26.667,0,0,1,733.741,312.9l-2.764-5.792-.771-1.629c18.81-5.542,35.223-14.9,46.838-25.9Z" transform="translate(176.393 66.749)" fill="#ffdf5a"/><path d="M692.325,337.6H718.5c.225-1.779.286-1.6.536-3.305,21.109,7.4,48.053,7.249,68.151,2.673L746.017,264.5a61.82,61.82,0,0,1,7.837-7.316l43.693,76.927c15.96-5.1,32.134-14.661,42.2-24.278l2.228,4.654,2.309,4.873c-11.615,10.993-28.027,20.354-46.838,25.9l-3.525-7.385,1.282,7.934a131.686,131.686,0,0,1-34.99,4.884C746.5,350.686,713.569,347.347,692.325,337.6Z" transform="translate(109.147 26.976)"/><path d="M734.5,279.063a7.818,7.818,0,1,0,7.815-7.812A7.819,7.819,0,0,0,734.5,279.063Z" transform="translate(184.024 51.956)"/><path d="M647.04,419.459l21.578-43.8,9.894-20.079a46.391,46.391,0,0,1-5.631-21.933c0-22.793,15.394-42.3,36.628-47.068-.122,1.687-.222,3.389-.222,5.115,0,31.549,21.07,50.609,47.074,50.609,25.721,0,46.554-18.7,47-49.638,15.919,4.188,31.8,5.842,41.262,5.842a131.686,131.686,0,0,0,34.99-4.884l5.756,35.454h-.377c.1,1.271.377,2.478.377,3.769a47.19,47.19,0,0,1-12.064,31.38l5.623,11.434,21.586,43.8a21.827,21.827,0,1,1-39.156,19.3L832.609,380.4H720.154a47.365,47.365,0,0,1-4.965-.486l-29,58.843a21.822,21.822,0,1,1-39.145-19.3Z" transform="translate(24.745 79.159)" fill="#e54b42"/><path d="M715.1,343.037c-26,0-47.074-19.06-47.074-50.609,0-1.726.1-3.427.222-5.115a45.885,45.885,0,0,1,10.046-1.155H741.2a129.414,129.414,0,0,0,20.9,7.241C761.652,324.341,740.818,343.037,715.1,343.037Z" transform="translate(66.007 78.421)" fill="#ffdf5a"/><path d="M907.838,338.8l-4.521,4.266c-20.492,19.374-60.472,31.4-104.321,31.4-42.941,0-81.589-11.675-106.008-32.043l-4.357-3.624H630.842v16.163h57.789l4.357,3.624C717.407,378.95,756.055,390.628,799,390.628c43.849,0,83.829-12.031,104.321-31.4l4.521-4.266h58.347V338.8Z" transform="translate(0 171.862)" fill="#595858"/><path d="M903.317,348.885c-20.492,19.374-60.472,31.4-104.321,31.4-42.941,0-81.589-11.678-106.008-32.046l-4.357-3.624H630.842v15.114h46.671c30.022,22.821,72.944,35.381,121.108,35.384,49.155,0,94.305-13.2,121.325-35.384h46.238V344.619H907.838Z" transform="translate(0 182.201)"/><path d="M742.285,339.335A14.666,14.666,0,1,0,756.939,354,14.668,14.668,0,0,0,742.285,339.335Zm0,22.6A7.936,7.936,0,1,1,750.214,354,7.95,7.95,0,0,1,742.285,361.937Z" transform="translate(171.78 172.821)" fill="#008837"/><path d="M755.124,332.1a34.742,34.742,0,1,0,34.735,34.74A34.781,34.781,0,0,0,755.124,332.1Zm0,49.41a14.666,14.666,0,1,1,14.653-14.667A14.667,14.667,0,0,1,755.124,381.51Z" transform="translate(158.942 159.977)" fill="#20ae76"/><path d="M659.009,339.335A14.666,14.666,0,1,0,673.665,354,14.667,14.667,0,0,0,659.009,339.335Zm0,22.6A7.936,7.936,0,1,1,666.938,354,7.955,7.955,0,0,1,659.009,361.937Z" transform="translate(23.96 172.821)" fill="#008837"/><path d="M671.849,332.1a34.742,34.742,0,1,0,34.743,34.74A34.782,34.782,0,0,0,671.849,332.1Zm0,49.41a14.666,14.666,0,1,1,14.656-14.667A14.665,14.665,0,0,1,671.849,381.51Z" transform="translate(11.12 159.977)" fill="#20ae76"/><path d="M659.009,339.335A14.666,14.666,0,1,1,644.339,354,14.656,14.656,0,0,1,659.009,339.335Z" transform="translate(23.96 172.821)"/><path d="M742.285,339.335A14.666,14.666,0,1,1,727.607,354,14.656,14.656,0,0,1,742.285,339.335Z" transform="translate(171.78 172.821)"/></g></g></svg>