<svg xmlns="http://www.w3.org/2000/svg" xmlns:xlink="http://www.w3.org/1999/xlink" width="209" height="330" viewBox="0 0 209 330"><defs><clipPath id="b"><rect width="209" height="330"/></clipPath></defs><g id="a" clip-path="url(#b)"><g transform="translate(-62.454 -231.56)"><path d="M127.594,342.578c.023-.422.042-.847.042-1.274,0-.775-.042-1.538-.109-2.3l-2.422,2.056Z" transform="translate(82.705 141.837)" fill="#eab828"/><path d="M88.934,339.005c-.065.761-.107,1.524-.107,2.3,0,.61.019,1.211.063,1.812l2.847-1.74Z" transform="translate(34.815 141.837)" fill="#eab828"/><path d="M132.383,336.9h-6.6a28.12,28.12,0,0,1,.845,4.872Z" transform="translate(83.603 139.065)" fill="#00649e"/><path d="M86.392,336.9l5.756,4.872a27.691,27.691,0,0,1,.847-4.872Z" transform="translate(31.6 139.065)" fill="#00649e"/><path d="M196.9,349.009l-2.489-1.517,2.422-2.056a28.119,28.119,0,0,0-.845-4.872H183.056l-10.538-6.431-2.575,6.431H137.02l-2.353-5.884-9.64,5.884H111.2a27.688,27.688,0,0,0-.847,4.872l2.8,2.371-2.847,1.74-37.7,23,36.05,51.216,44.938-41.711c.193,0,.383-.012.58-.012l44.351,41.172L234.571,372Z" transform="translate(13.4 135.406)" fill="#00649e"/><path d="M138.617,366.359c-15.294,22.6-19.384,46.539-9.144,53.474s30.95-5.77,46.242-28.37,19.389-46.539,9.143-53.471S153.908,343.759,138.617,366.359Z" transform="translate(81.026 138)" fill="#b7281d"/><path d="M137.1,366.15c-9.355,13.818-11.853,28.456-5.591,32.695s18.925-3.524,28.275-17.347,11.86-28.454,5.591-32.693S146.45,352.331,137.1,366.15Z" transform="translate(86.602 153.246)" fill="#eab828"/><path d="M202.528,367.447c0-44.852-27.117-61.1-60.559-61.1S81.41,322.6,81.41,367.447l11.559,9.793h97.994Z" transform="translate(25.023 98.73)" fill="#20ae76"/><path d="M133.032,324.81c-.158-.694-.856-1.153-.654-1.826a22.481,22.481,0,0,1-1.8-9.77V295.345c0-11.083-9.988-20.069-22.312-20.069a24.3,24.3,0,0,0-10.118,2.195c-.058.445-.118.893-.155,1.339a46.734,46.734,0,0,0-11.109,10.8,31.252,31.252,0,0,0-6.225,18.338c0,23.264,33.5,37.358,62.3,42.126V333.485C137.048,331.158,134.043,329.207,133.032,324.81Z" transform="translate(24.031 57.709)" fill="#ffdf5a"/><path d="M103.124,294.915a8.836,8.836,0,0,0-.306,2.311c0,5.234,4.188,11.185,10.891,10.334v-8.874C112.363,300.938,106.224,302.068,103.124,294.915Z" transform="translate(53.284 83.634)" fill="#e54b42"/><path d="M80.583,231.764c-3.515,1.9-7.932,28.89,4.759,52.376s31.138,38.117,41.2,32.676,7.935-28.89-4.754-52.379S84.047,229.891,80.583,231.764Zm36.9,68.28c-5.253,2.835-14.881-4.8-21.5-17.05s-4.313-26.333-2.48-27.324c1.81-.979,14.876,4.793,21.5,17.048S122.737,297.2,117.485,300.044Z" transform="translate(19.05 0)" fill="#b7281d"/><path d="M85.145,242.013c-1.833.991-4.141,15.074,2.48,27.324s16.252,19.885,21.5,17.05,4.134-15.074-2.485-27.326S86.954,241.034,85.145,242.013Z" transform="translate(27.405 13.657)" fill="#ffdf5a"/><path d="M120.626,318.436V338.3l12.385-1.652V259.487c-23.175,0-42.242,17.087-44.815,39.073a22.289,22.289,0,0,1,32.43,19.876Z" transform="translate(33.982 36.866)" fill="#e54b42"/><path d="M102.174,293.817c0,12.148,10.563,11.487,12.385,9.515V292.745Z" transform="translate(52.434 80.77)" fill="#fff"/><path d="M111.254,283.434c5.248,6.178,3.7,16.125.919,18.489-2.893,2.455-12.842,2.281-18.1-3.9s-3.663-16.152-.914-18.489C95.937,277.172,106,277.248,111.254,283.434Z" transform="translate(37.173 61.435)" fill="#fff"/><path d="M106.763,282.9a8.228,8.228,0,1,1-11.6-.947A8.23,8.23,0,0,1,106.763,282.9Z" transform="translate(39.348 63.938)" fill="#00649e"/><path d="M98.175,282.772a2.626,2.626,0,1,1-3.705-.3A2.623,2.623,0,0,1,98.175,282.772Z" transform="translate(41.041 66.379)" fill="#fff"/><path d="M117.437,324.81c.158-.694.861-1.153.661-1.826a22.632,22.632,0,0,0,1.793-9.77V295.345c0-11.083,9.986-20.069,22.315-20.069a24.258,24.258,0,0,1,10.113,2.195c.058.445.121.893.162,1.339a46.655,46.655,0,0,1,11.1,10.8,31.239,31.239,0,0,1,6.227,18.338c0,23.264-33.5,37.358-62.3,42.126V333.485C113.424,331.158,116.428,329.207,117.437,324.81Z" transform="translate(59.481 57.709)" fill="#eab828"/><path d="M118.1,294.915a8.93,8.93,0,0,1,.3,2.311c0,5.234-4.188,11.185-10.886,10.334v-8.874C108.855,300.938,115,302.068,118.1,294.915Z" transform="translate(59.481 83.634)" fill="#b7281d"/><path d="M125.1,264.438c-12.691,23.489-14.816,46.938-4.752,52.379s28.521-9.19,41.21-32.676,8.271-50.476,4.749-52.376C162.844,229.891,137.794,240.956,125.1,264.438Zm6.791,8.28c6.626-12.255,19.693-18.027,21.5-17.048,1.844.991,4.141,15.074-2.478,27.324s-16.248,19.885-21.5,17.05S125.27,284.97,131.889,272.718Z" transform="translate(68.039 0)" fill="#e54b42"/><path d="M146.5,242.013c1.844.991,4.141,15.074-2.478,27.324s-16.248,19.885-21.5,17.05-4.141-15.074,2.478-27.326S144.7,241.034,146.5,242.013Z" transform="translate(74.925 13.657)" fill="#eab828"/><path d="M119.892,318.436V338.3l-12.38-1.652V259.487c23.166,0,42.233,17.087,44.808,39.073a22.287,22.287,0,0,0-32.428,19.876Z" transform="translate(59.481 36.866)" fill="#b7281d"/><path d="M119.892,293.817c0,12.148-10.563,11.487-12.38,9.515V292.745Z" transform="translate(59.481 80.77)" fill="#dcf0ff"/><path d="M117.492,283.434c-5.25,6.178-3.7,16.125-.923,18.489,2.9,2.455,12.846,2.281,18.1-3.9s3.666-16.152.916-18.489C132.8,277.172,122.74,277.248,117.492,283.434Z" transform="translate(68.066 61.435)" fill="#fff"/><path d="M117.621,282.9a8.229,8.229,0,1,0,11.6-.947A8.237,8.237,0,0,0,117.621,282.9Z" transform="translate(70.248 63.938)" fill="#00649e"/><path d="M121.795,282.772a2.625,2.625,0,1,1-3.7-.3A2.618,2.618,0,0,1,121.795,282.772Z" transform="translate(72.227 66.379)" fill="#fff"/><path d="M104.552,295.819c0,2.984,3.069,5.408,6.867,5.408V290.416C107.621,290.416,104.552,292.836,104.552,295.819Z" transform="translate(55.573 77.695)" fill="#595858"/><path d="M114.382,295.819c0-2.984-3.076-5.4-6.87-5.4v10.812C111.305,301.228,114.382,298.8,114.382,295.819Z" transform="translate(59.481 77.695)" fill="#1c1c1c"/><path d="M116.852,299.47a27.048,27.048,0,0,0-11.909,0,29.634,29.634,0,0,0,5.96,2.953A29.561,29.561,0,0,0,116.852,299.47Z" transform="translate(56.089 88.771)" fill="#595858"/><path d="M98.21,305.082a17.278,17.278,0,0,0-.958,5.645c0,11.157,10.656,20.2,23.8,20.2v-20.2A149.4,149.4,0,0,1,98.21,305.082Z" transform="translate(45.936 97.056)" fill="#e54b42"/><path d="M131.314,310.727a17.463,17.463,0,0,0-.958-5.645,149.572,149.572,0,0,1-22.844,5.647v20.2C120.655,330.928,131.314,321.884,131.314,310.727Z" transform="translate(59.481 97.056)" fill="#b7281d"/><path d="M107.18,339.105a182.973,182.973,0,0,1-16.222-20.776,29.582,29.582,0,1,0,40.17,43.1A175.435,175.435,0,0,1,107.18,339.105Z" transform="translate(22.48 114.543)" fill="#e54b42"/><path d="M137.229,339.105a183.807,183.807,0,0,0,16.224-20.776,29.584,29.584,0,1,1-40.175,43.1A175.169,175.169,0,0,0,137.229,339.105Z" transform="translate(67.094 114.543)" fill="#b7281d"/><path d="M114.338,366.6c15.292,22.6,19.384,46.541,9.141,53.471S92.536,414.3,77.24,391.7s-19.387-46.541-9.146-53.474S99.049,344,114.338,366.6Z" transform="translate(0 138.313)" fill="#e54b42"/><path d="M101.114,366.387c9.355,13.816,11.86,28.458,5.6,32.7s-18.927-3.526-28.275-17.343-11.856-28.465-5.594-32.7S91.769,352.57,101.114,366.387Z" transform="translate(9.162 153.559)" fill="#ffdf5a"/></g></g></svg>