<svg xmlns="http://www.w3.org/2000/svg" xmlns:xlink="http://www.w3.org/1999/xlink" width="442" height="330" viewBox="0 0 442 330"><defs><clipPath id="b"><rect width="442" height="330"/></clipPath></defs><g id="a" clip-path="url(#b)"><g transform="translate(-429.826 -447.068)"><g transform="translate(429.826 611.421)"><rect width="164.352" height="164.362" fill="#ffdf5a"/><rect width="56.442" height="164.362" transform="translate(164.352)" fill="#eab828"/><path d="M525.025,610.038l-9.615-22.35H472.05l-9.622,22.35H437.866l44.689-103.444H504.9l44.7,103.444ZM493.81,537.374l-13.025,30.037h25.9Z" transform="translate(-411.554 -476.135)" fill="#e54b42"/></g><g transform="translate(540.22 447.068)"><rect width="164.355" height="164.352" fill="#20ae76"/><rect width="56.426" height="164.352" transform="translate(164.355)" fill="#18855a"/><path d="M522.867,559.808H477.6V456.373h40.245a57.429,57.429,0,0,1,18.128,2.523c5.083,1.666,8.9,3.934,11.471,6.807a26.725,26.725,0,0,1,6.948,18.039q0,12.15-7.835,18.049a27.346,27.346,0,0,1-3.7,2.6c-.7.344-1.928.91-3.7,1.705a27.087,27.087,0,0,1,15.313,8.66q5.709,6.583,5.7,16.351a27.774,27.774,0,0,1-7.4,19.083Q544.183,559.822,522.867,559.808Zm-22.2-61.56h10.954c6.408,0,11.18-.691,14.282-2.072s4.657-4.353,4.657-8.948-1.427-7.622-4.294-9.1-7.691-2.222-14.5-2.222h-11.1Zm0,42.035h15.84c6.6,0,11.559-.828,14.875-2.451s4.952-4.821,4.952-9.619-1.751-7.943-5.246-9.468q-5.267-2.3-16.8-2.288H500.672Z" transform="translate(-431.652 -425.922)" fill="#ffdf5a"/></g><g transform="translate(650.62 611.421)"><rect width="164.349" height="164.362" fill="#5698d8"/><rect width="56.426" height="164.362" transform="translate(164.349)" fill="#00649e"/><path d="M561.31,591.438q17.01,0,27.822-13.471l14.789,15.244q-17.609,19.848-41.5,19.823-23.893,0-39.368-15.084-15.459-15.09-15.467-38.111,0-23,15.761-38.4t38.556-15.392q25.444,0,42.617,19.391l-14.354,16.262q-10.952-13.6-27.232-13.608a31.682,31.682,0,0,0-22.268,8.522q-9.258,8.5-9.255,22.926t8.742,23.161A28.789,28.789,0,0,0,561.31,591.438Z" transform="translate(-473.889 -477.365)" fill="#fff"/></g></g></g></svg>