<svg width="20" height="20" viewBox="0 0 20 20" fill="none" xmlns="http://www.w3.org/2000/svg">
<path d="M7.06649 16.3068H12.9307L12.9313 16.3068M7.06649 16.3068L16.8059 12.9309C16.8049 13.9584 16.3964 14.9436 15.67 15.6702C14.9436 16.3968 13.9587 16.8056 12.9313 16.8068V16.3068M7.06649 16.3068C7.06629 16.3068 7.06609 16.3068 7.06589 16.3068C6.17135 16.3053 5.31388 15.9491 4.68148 15.3163C4.049 14.6834 3.6933 13.8255 3.69238 12.9307V7.06746C3.69337 6.17273 4.04911 5.31491 4.68158 4.68213C5.31403 4.04936 6.17155 3.69327 7.06611 3.69189H12.9287C12.9288 3.69189 12.9288 3.69189 12.9288 3.69189C13.824 3.69238 14.6824 4.04811 15.3156 4.68099C15.9487 5.3138 16.3048 6.172 16.3059 7.0672M7.06649 16.3068L16.3059 7.0672M12.9313 16.3068C13.826 16.3056 14.6838 15.9495 15.3164 15.3167C15.9491 14.6838 16.3049 13.8258 16.3059 12.9309M12.9313 16.3068L16.3059 12.9309M16.3059 12.9309L16.3059 12.9304V7.06771M16.3059 12.9309L16.3059 7.06771M16.3059 7.06771L16.3059 7.0672M16.3059 7.06771C16.3059 7.06754 16.3059 7.06737 16.3059 7.0672M7.06576 3.85877L7.06494 3.85877C6.21479 3.86013 5.39989 4.19861 4.79893 4.79997C4.19797 5.40134 3.86001 6.21649 3.85914 7.06668V7.0672L3.85914 12.9309L3.85914 12.9314C3.85991 13.7816 4.19781 14.5969 4.79876 15.1984C5.39971 15.7999 6.21465 16.1385 7.06488 16.14H7.06573H12.9288H12.929C13.78 16.1397 14.5961 15.8016 15.198 15.2C15.7999 14.5983 16.1384 13.7824 16.1391 12.9314V12.9309L16.1391 7.0672L16.1391 7.06663C16.1382 6.21625 15.8 5.40096 15.1987 4.79964C14.5974 4.19831 13.7822 3.86005 12.9319 3.85908L12.9313 3.85908L7.06576 3.85877Z" stroke="white"/>
<path d="M8.3394 12.4826C8.83079 12.8106 9.40842 12.9855 9.99922 12.9852L8.3394 12.4826ZM8.3394 12.4826C7.84799 12.1546 7.46489 11.6882 7.23857 11.1424M8.3394 12.4826L7.23857 11.1424M7.23857 11.1424C7.01225 10.5966 6.95287 9.99599 7.06794 9.41646M7.23857 11.1424L7.06794 9.41646M7.06794 9.41646C7.18302 8.83694 7.46738 8.30456 7.88505 7.88666M7.06794 9.41646L7.88505 7.88666M7.88505 7.88666C8.30272 7.46876 8.83495 7.18412 9.41441 7.06874M7.88505 7.88666L9.41441 7.06874M9.41441 7.06874C9.99387 6.95336 10.5945 7.01242 11.1404 7.23845M9.41441 7.06874L11.1404 7.23845M11.1404 7.23845C11.6863 7.46448 12.1529 7.84733 12.4812 8.33857M11.1404 7.23845L12.4812 8.33857M12.4812 8.33857C12.8094 8.82971 12.9846 9.40712 12.9847 9.99782L12.4812 8.33857ZM10 7.18076H9.99957C9.44202 7.18076 8.897 7.34611 8.43344 7.6559C7.96987 7.96569 7.6086 8.406 7.3953 8.92114C7.18201 9.43627 7.12628 10.0031 7.23516 10.5499C7.34404 11.0967 7.61264 11.599 8.00699 11.9931C8.40134 12.3872 8.90372 12.6556 9.45059 12.7642C9.99747 12.8728 10.5643 12.8167 11.0793 12.6032C11.5943 12.3896 12.0344 12.0281 12.344 11.5643C12.6535 11.1006 12.8186 10.5555 12.8183 9.99796L12.8183 9.99769C12.8175 9.25053 12.5203 8.5342 11.9919 8.00591C11.4632 7.47726 10.7467 7.18146 10 7.18076ZM12.9847 9.99785C12.9841 10.7897 12.6693 11.5489 12.1096 12.109C11.5499 12.6689 10.791 12.9841 9.99931 12.9852L12.9847 9.99785Z" stroke="white"/>
<path d="M13.8735 6.07466C13.9368 6.13802 13.9724 6.22394 13.9724 6.31354L13.6347 5.97559C13.7242 5.97567 13.8101 6.0113 13.8735 6.07466ZM13.447 6.03251C13.5025 5.99543 13.5677 5.97562 13.6345 5.97559L13.9724 6.31373C13.9724 6.38048 13.9525 6.44572 13.9154 6.50121C13.8783 6.55675 13.8255 6.60003 13.7638 6.62558C13.7021 6.65112 13.6342 6.65779 13.5687 6.64475C13.5032 6.6317 13.443 6.59952 13.3958 6.55227C13.3485 6.50502 13.3164 6.44482 13.3034 6.37929C13.2903 6.31375 13.297 6.24583 13.3226 6.1841C13.3482 6.12237 13.3915 6.06962 13.447 6.03251Z" stroke="white"/>
</svg>
