<svg xmlns="http://www.w3.org/2000/svg" xmlns:xlink="http://www.w3.org/1999/xlink" width="307" height="368" viewBox="0 0 307 368"><defs><clipPath id="b"><rect width="307" height="368"/></clipPath></defs><g id="a" clip-path="url(#b)"><g transform="translate(-636.061 -430.582)"><g transform="translate(685.488 433.303)"><path d="M668.171,520.021H655.506v12.668H673.04l80.379-80.39-8.759-8.759Z" transform="translate(-655.506 -414.639)" fill="#00649e"/><path d="M694.68,433.3h-18v23.351h18v-5.828L706.058,462.2l8.759-8.762Z" transform="translate(-616.904 -433.303)" fill="#00649e"/></g><path d="M715.118,433.3H697.173v25.083h17.945v-7.559l71.631,71.623-11.381,11.378v-3.2H757.837v20.724h17.531l28.907-28.9Z" transform="translate(105.946 0)" fill="#eab828"/><path d="M723.484,516h17.529V475.118H723.484Z" transform="translate(153.914 76.234)" fill="#b7281d"/><path d="M842.589,475.118h-191.9V516h205.52V475.118Z" transform="translate(21.194 76.234)" fill="#e54b42"/><path d="M711.861,532.319v40.869h17.534V532.319H711.861Z" transform="translate(132.723 180.519)" fill="#eab828"/><path d="M836.2,532.319H639.061v40.869H844.583V532.319Z" transform="translate(0 180.519)" fill="#ffdf5a"/><rect width="17.52" height="40.874" transform="translate(921.438 753.707)" fill="#b7281d"/><path d="M812.485,546.8h-146.2V587.67H871.807V546.8Z" transform="translate(49.632 206.911)" fill="#e54b42"/><rect width="17.523" height="120.608" transform="translate(730.6 592.23)" fill="#18855a"/><path d="M674.53,489.6H657V610.206h40.883V489.6Z" transform="translate(32.713 102.632)" fill="#20ae76"/><path d="M717.164,610.206h17.517V489.6H717.164Z" transform="translate(142.392 102.632)" fill="#00649e"/><path d="M720.214,489.6H702.683V610.206h40.883V489.6Z" transform="translate(115.99 102.632)" fill="#5698d8"/><path d="M743.186,442.059l-8.764-8.756-89.154,89.146,28.9,28.9,8.767-8.759,80.387-80.39Z" transform="translate(11.316 0)" fill="#5698d8"/><path d="M724.749,442.059l-8.77-8.756-20.134,20.139-8.759,8.762,8.759,8.759,80.382,80.39,8.767-8.759,20.145-20.145Z" transform="translate(87.556 0)" fill="#ffdf5a"/></g></g></svg>