<svg width="20" height="20" viewBox="0 0 20 20" fill="none" xmlns="http://www.w3.org/2000/svg">
<path d="M6.90991 16.9997H4.21473V8.32047H6.90991V16.9997ZM5.56087 7.13654C4.69904 7.13654 4 6.4227 4 5.56087C4 5.1469 4.16445 4.74989 4.45717 4.45717C4.74989 4.16445 5.1469 4 5.56087 4C5.97484 4 6.37185 4.16445 6.66457 4.45717C6.95729 4.74989 7.12174 5.1469 7.12174 5.56087C7.12174 6.4227 6.42241 7.13654 5.56087 7.13654ZM16.9971 16.9997H14.3077V12.7747C14.3077 11.7678 14.2874 10.4765 12.9065 10.4765C11.5052 10.4765 11.2904 11.5705 11.2904 12.7022V16.9997H8.59817V8.32047H11.1831V9.5044H11.2208C11.5806 8.82248 12.4596 8.10283 13.7709 8.10283C16.4986 8.10283 17 9.89904 17 12.2321V16.9997H16.9971Z" fill="white"/>
</svg>
