<svg xmlns="http://www.w3.org/2000/svg" xmlns:xlink="http://www.w3.org/1999/xlink" width="596" height="429" viewBox="0 0 596 429"><defs><clipPath id="b"><rect width="596" height="429"/></clipPath></defs><g id="a" clip-path="url(#b)"><g transform="translate(110.095 -27)"><g transform="translate(-4.62 -38.62)"><rect width="472" height="436.714" transform="translate(16.62 16.62)" fill="#e8e8e8"/></g><g transform="translate(-549.853 -9.469)"><path d="M703.887,185.045c0-57.156-54.811-87.948-122.445-87.948C513.825,97.1,459,127.89,459,185.045s54.821,62.97,122.438,62.97C649.076,248.016,703.887,242.2,703.887,185.045Z" transform="translate(42.307 133.642)" fill="#00649e"/><path d="M759.574,218.821l-51.594-77.89-18.252,6.492a54.527,54.527,0,0,0,6.105-15.627H502.825a55.638,55.638,0,0,0,8.031,18.844l-20.194-7.18L450.87,225.669l71.509,15.339,40.355-55.262a132.269,132.269,0,0,0,36.6,5.1,131.681,131.681,0,0,0,38.1-5.562l40.886,59.526Z" transform="translate(24.427 209.921)" fill="#20ae76"/><path d="M481.961,97.8A33.118,33.118,0,0,1,543.645,81.02,111.6,111.6,0,0,1,570.719,71.7a61.47,61.47,0,1,0-85.208,80.01,107.228,107.228,0,0,1,10.82-26.609A33.125,33.125,0,0,1,481.961,97.8Z" transform="translate(30.432 0)" fill="#e54b42"/><path d="M495.612,45.168a33.137,33.137,0,0,0-18.773,60.447A110.774,110.774,0,0,1,524.154,61.53,33.117,33.117,0,0,0,495.612,45.168Z" transform="translate(49.924 19.49)" fill="#ffdf5a"/><path d="M620,97.8A61.459,61.459,0,0,0,503.161,71.115a112.211,112.211,0,0,1,27.719,8.4,33.127,33.127,0,1,1,49.16,43.445,106.949,106.949,0,0,1,11.578,26.606A61.391,61.391,0,0,0,620,97.8Z" transform="translate(139.375 0)" fill="#e54b42"/><path d="M560.988,103.472a33.126,33.126,0,1,0-49.16-43.445A110.843,110.843,0,0,1,560.988,103.472Z" transform="translate(158.427 19.49)" fill="#ffdf5a"/><path d="M685.185,141.911c0,52.6-49.848,95.247-111.36,95.247-61.5,0-111.356-42.642-111.356-95.247S512.33,46.664,573.825,46.664C635.337,46.664,685.185,89.309,685.185,141.911Z" transform="translate(49.924 22.778)" fill="#b7281d"/><path d="M577.891,115.275c0,22.775-21.387,41.229-47.769,41.229S482.35,138.05,482.35,115.275s21.387-41.222,47.772-41.222S577.891,92.507,577.891,115.275Z" transform="translate(93.628 82.986)" fill="#ffdf5a"/><path d="M525.254,96.057a16.573,16.573,0,1,1-16.58-16.573A16.574,16.574,0,0,1,525.254,96.057Z" transform="translate(115.076 94.925)" fill="#1c1c1c"/><path d="M511.075,82.808a16.572,16.572,0,1,1-16.567-16.573A16.569,16.569,0,0,1,511.075,82.808Z" transform="translate(83.916 65.8)" fill="#1c1c1c"/><path d="M490.745,74.037a5.386,5.386,0,1,1-5.38-5.389A5.381,5.381,0,0,1,490.745,74.037Z" transform="translate(88.402 71.104)" fill="#dcf0ff"/><path d="M539.433,83.409a16.578,16.578,0,1,1-16.577-16.573A16.579,16.579,0,0,1,539.433,83.409Z" transform="translate(146.225 67.121)" fill="#1c1c1c"/><path d="M519.1,74.637a5.392,5.392,0,1,1-5.389-5.389A5.4,5.4,0,0,1,519.1,74.637Z" transform="translate(150.712 72.423)" fill="#dcf0ff"/><path d="M483.941,108.1c-14.747,8.971-24.345,24.3-26.459,42.761a57.831,57.831,0,0,0,74.925,61.707c12.793-4.084,10.506-21.825-.943-35.315-6.521-7.692-13.161-16.177-19.634-25.288C500.908,136.624,490.837,121.583,483.941,108.1Z" transform="translate(38.13 157.821)" fill="#e54b42"/><path d="M568.341,108.1c14.75,8.971,24.352,24.3,26.462,42.761a57.839,57.839,0,0,1-74.938,61.707c-12.783-4.084-10.484-21.825.956-35.315,6.518-7.692,13.151-16.177,19.634-25.288C551.384,136.624,561.448,121.583,568.341,108.1Z" transform="translate(157.088 157.821)" fill="#e54b42"/><path d="M544.062,159.449c24.131,29.692,24.451,69.411.7,88.71s-62.574,10.88-86.7-18.809-24.447-69.408-.688-88.71C481.108,121.342,519.931,129.76,544.062,159.449Z" transform="translate(0 206.57)" fill="#b7281d"/><path d="M523.893,157.741c16.592,20.427,15.521,48.8-2.4,63.367s-45.924,9.831-62.522-10.6-15.531-48.8,2.4-63.37S507.284,137.314,523.893,157.741Z" transform="translate(16.328 225.077)" fill="#ffdf5a"/><path d="M534.79,159.449c-24.131,29.692-24.45,69.411-.7,88.71s62.574,10.88,86.7-18.809,24.444-69.408.7-88.71S558.931,129.76,534.79,159.449Z" transform="translate(168.659 206.57)" fill="#b7281d"/><path d="M531.5,157.741c-16.6,20.427-15.524,48.8,2.4,63.367s45.923,9.831,62.529-10.6,15.521-48.8-2.409-63.37S548.1,137.314,531.5,157.741Z" transform="translate(175.786 225.077)" fill="#ffdf5a"/></g></g></g></svg>