<svg xmlns="http://www.w3.org/2000/svg" xmlns:xlink="http://www.w3.org/1999/xlink" width="265" height="266" viewBox="0 0 265 266"><defs><clipPath id="b"><rect width="265" height="266"/></clipPath></defs><g id="a" clip-path="url(#b)"><g transform="translate(-48.178 -632.842)"><path d="M217.5,709.12,230.1,652A132.31,132.31,0,0,0,67.96,671.578c-1.5,1.5-2.956,3.036-4.376,4.6C109.56,640.273,176.035,647.839,217.5,709.12Z" transform="translate(18.937 0)" fill="#eab828"/><path d="M183.343,667.059c22.7,66.5-14.316,155.143-91.969,183.3a132.278,132.278,0,0,0,124.915-29.386C252.191,775,244.622,708.523,183.343,667.059Z" transform="translate(53.097 42.061)" fill="#e54b42"/><path d="M189.747,661.408l-57.117,12.6c61.279,41.464,68.848,107.937,32.946,153.915,1.552-1.422,3.09-2.867,4.6-4.374A132.32,132.32,0,0,0,189.747,661.408Z" transform="translate(103.81 35.115)" fill="#eab828"/><path d="M236.44,697.118C194.972,635.836,128.5,628.27,82.521,664.172a132.235,132.235,0,0,0-29.377,124.9C81.295,711.436,169.947,674.413,236.44,697.118Z" transform="translate(0 12.003)" fill="#e54b42"/><path d="M233.7,670.7c-66.493-22.7-155.145,14.318-183.3,91.958a132.216,132.216,0,0,0,91.327,91.343C219.386,825.848,256.407,737.207,233.7,670.7Z" transform="translate(2.738 38.416)" fill="#ffdf5a"/><path d="M189.747,685.959a132.4,132.4,0,0,0-44.52-44.524l-12.6,57.122Z" transform="translate(103.81 10.563)" fill="#b7281d"/><path d="M167.132,704.836c-10.083,10.076-27.587,8.908-39.107-2.61s-12.684-29.027-2.608-39.1,27.587-8.917,39.11,2.6S177.212,694.751,167.132,704.836Z" transform="translate(86.516 28.79)" fill="#18855a"/></g></g></svg>