<svg xmlns="http://www.w3.org/2000/svg" xmlns:xlink="http://www.w3.org/1999/xlink" width="423" height="433" viewBox="0 0 423 433"><defs><clipPath id="b"><rect width="423" height="433"/></clipPath></defs><g id="a" clip-path="url(#b)"><g transform="translate(-627.712 -46.269)"><path d="M799.6,145.019V119.4c-64.317,0-120.019-12.429-147.481-30.589-6.067-4.016-10.756-8.307-13.846-12.807A22.473,22.473,0,0,1,633.9,63.2V88.816C633.9,119.853,708.076,145.019,799.6,145.019Z" transform="translate(0 39.27)" fill="#e54b42"/><path d="M652.115,131.265c-6.067-4.016-10.756-8.31-13.846-12.8a22.5,22.5,0,0,1-4.374-12.81v25.614c0,31.04,74.181,56.2,165.7,56.2V161.857C735.279,161.857,679.577,149.425,652.115,131.265Z" transform="translate(0 137.692)" fill="#e54b42"/><path d="M799.6,71.876V46.269c-91.521,0-165.7,25.159-165.7,56.206a22.473,22.473,0,0,0,4.374,12.8C655.357,90.408,721.065,71.876,799.6,71.876Z" fill="#b7281d"/><path d="M649.059,110.195c27.462,18.16,83.164,30.589,147.481,30.589v-86.8c-78.531,0-144.239,18.532-161.327,43.4C638.3,101.888,642.992,106.179,649.059,110.195Z" transform="translate(3.056 17.891)" fill="#fff"/><path d="M750.019,91.9l-94.743,91.713c26.845,6.369,59.482,10.125,94.743,10.125Z" transform="translate(49.577 105.809)" fill="#ffdf5a"/><path d="M771.815,108.113c-56.953-1.58-105.772-12.913-131.827-29.079l44.139,113.972Z" transform="translate(14.128 75.974)" fill="#ffdf5a"/><path d="M633.9,163.478a22.5,22.5,0,0,0,4.374,12.81c3.09,4.494,7.779,8.788,13.846,12.8,7.623,5.038,17.48,9.611,29.025,13.62l-47.245-122Z" transform="translate(0 79.864)" fill="#ffdf5a"/><path d="M785.943,126.922l-87.688,84.893L654.116,97.844c-9.448-5.861-15.883-12.366-18.645-19.262a20.29,20.29,0,0,1-1.576-7.66v32.491l47.245,122a242.392,242.392,0,0,0,23.713,6.847L799.6,140.546V127.125C794.99,127.125,790.44,127.045,785.943,126.922Z" transform="translate(0 57.164)" fill="#e54b42"/><path d="M683.824,145.019V119.4c64.294,0,120-12.429,147.462-30.589,6.086-4.016,10.756-8.307,13.862-12.807a22.489,22.489,0,0,0,4.367-12.8V88.816C849.516,119.853,775.325,145.019,683.824,145.019Z" transform="translate(115.772 39.27)" fill="#b7281d"/><path d="M831.286,131.265c6.086-4.016,10.756-8.31,13.862-12.8a22.516,22.516,0,0,0,4.367-12.81v25.614c0,31.04-74.19,56.2-165.692,56.2V161.857C748.118,161.857,803.823,149.425,831.286,131.265Z" transform="translate(115.772 137.692)" fill="#b7281d"/><path d="M683.824,71.876V46.269c91.5,0,165.692,25.159,165.692,56.206a22.489,22.489,0,0,1-4.367,12.8C828.047,90.408,762.339,71.876,683.824,71.876Z" transform="translate(115.772)" fill="#e54b42"/><path d="M831.286,110.195c-27.463,18.16-83.168,30.589-147.462,30.589v-86.8c78.515,0,144.223,18.532,161.324,43.4C842.042,101.888,837.372,106.179,831.286,110.195Z" transform="translate(115.772 17.891)" fill="#dcf0ff"/><path d="M683.824,91.9l94.727,91.713c-26.849,6.369-59.472,10.125-94.727,10.125Z" transform="translate(115.772 105.809)" fill="#eab828"/><path d="M687.935,108.113C744.888,106.533,793.7,95.2,819.756,79.034l-44.13,113.972Z" transform="translate(125.305 75.974)" fill="#eab828"/><path d="M766.764,163.478a22.517,22.517,0,0,1-4.367,12.81c-3.106,4.494-7.776,8.788-13.862,12.8-7.613,5.038-17.477,9.611-29.022,13.62l47.252-122Z" transform="translate(198.524 79.864)" fill="#eab828"/><path d="M697.467,126.922l87.691,84.893,44.13-113.972c9.458-5.861,15.877-12.366,18.651-19.262a20.616,20.616,0,0,0,1.576-7.66v32.491l-47.252,122a242.668,242.668,0,0,1-23.713,6.847l-94.727-91.713V127.125C688.414,127.125,692.961,127.045,697.467,126.922Z" transform="translate(115.772 57.164)" fill="#b7281d"/><path d="M681.445,132.033a7.891,7.891,0,0,0,7.9,7.885V124.141A7.9,7.9,0,0,0,681.445,132.033Z" transform="translate(110.256 180.565)" fill="#ffdf5a"/><path d="M691.7,132.033a7.888,7.888,0,0,0-7.879-7.892v15.777A7.881,7.881,0,0,0,691.7,132.033Z" transform="translate(115.772 180.565)" fill="#eab828"/><path d="M681.445,91.922a7.892,7.892,0,0,0,7.9,7.892V84.04A7.892,7.892,0,0,0,681.445,91.922Z" transform="translate(110.256 87.581)" fill="#ffdf5a"/><path d="M691.7,91.922a7.882,7.882,0,0,0-7.879-7.882V99.814A7.882,7.882,0,0,0,691.7,91.922Z" transform="translate(115.772 87.581)" fill="#eab828"/><path d="M639.643,73.38c-2.449,0-4.43,2.761-4.43,6.173s1.981,6.17,4.43,6.17,4.437-2.758,4.437-6.17S642.1,73.38,639.643,73.38Z" transform="translate(3.056 62.863)" fill="#ffdf5a"/><path d="M639.643,113.358c-2.449,0-4.43,2.764-4.43,6.173s1.981,6.173,4.43,6.173,4.437-2.765,4.437-6.173S642.1,113.358,639.643,113.358Z" transform="translate(3.056 155.562)" fill="#ffdf5a"/><path d="M734.2,73.38c-2.459,0-4.441,2.761-4.441,6.173s1.982,6.17,4.441,6.17,4.437-2.758,4.437-6.17S736.649,73.38,734.2,73.38Z" transform="translate(222.284 62.863)" fill="#eab828"/><path d="M734.2,113.358c-2.459,0-4.441,2.764-4.441,6.173s1.982,6.173,4.441,6.173,4.437-2.765,4.437-6.173S736.649,113.358,734.2,113.358Z" transform="translate(222.284 155.562)" fill="#eab828"/><path d="M922.447,127,687.892,170.4a34.163,34.163,0,0,1,2.532,8.075l233.563-43.22Z" transform="translate(125.205 187.199)" fill="#5698d8"/><path d="M923.738,137.756l-1.52-8.267-233.563,43.22a34.709,34.709,0,0,1,.531,8.446Z" transform="translate(126.974 192.966)" fill="#00649e"/><path d="M724.533,151.271a29.388,29.388,0,0,0-31.512-15.522c-.73.136-1.44.329-2.144.508a22.816,22.816,0,0,1-18.787,41.517,29.381,29.381,0,1,0,52.443-26.5Z" transform="translate(88.564 206.33)" fill="#eab828"/><path d="M705,151.651a22.8,22.8,0,0,0-11.938-16.1,29.278,29.278,0,0,0-18.787,41.518A22.8,22.8,0,0,0,705,151.651Z" transform="translate(86.382 207.031)" fill="#ffdf5a"/><path d="M862.6,109.817,696.93,281.436a34.433,34.433,0,0,1,6.754,5.1L868.645,115.651Z" transform="translate(146.162 147.351)" fill="#5698d8"/><path d="M869.97,117.409l-6.043-5.834L698.965,282.457a35.178,35.178,0,0,1,5.34,6.568Z" transform="translate(150.881 151.428)" fill="#00649e"/><path d="M722.174,163.83a29.4,29.4,0,0,0-34.674,5.678c-.514.534-.972,1.1-1.457,1.669a22.812,22.812,0,0,1,8.831,44.7A29.388,29.388,0,0,0,734.267,175.5a29.743,29.743,0,0,0-5.19-6.724A29.333,29.333,0,0,0,722.174,163.83Z" transform="translate(120.918 264.957)" fill="#eab828"/><path d="M709.855,170.059a22.783,22.783,0,0,0-19.079-6.156,29.321,29.321,0,0,0,8.831,44.7,22.8,22.8,0,0,0,10.248-38.544Z" transform="translate(116.185 272.232)" fill="#ffdf5a"/></g></g></svg>