<svg xmlns="http://www.w3.org/2000/svg" xmlns:xlink="http://www.w3.org/1999/xlink" width="596" height="433" viewBox="0 0 596 433"><defs><clipPath id="b"><rect width="596" height="433"/></clipPath></defs><g id="a" clip-path="url(#b)"><g transform="translate(105.475 -16.62)"><rect width="472" height="436.714" transform="translate(16.62 16.62)" fill="#e8e8e8"/></g><g transform="translate(0 55.453)"><path d="M237.007,169.691,219.18,57.978H45.135V226.583H237.007Z" transform="translate(-17.96 -35.77)" fill="#e54b42"/><path d="M219.18,110.316H45.135V221.4H237.007V110.316Z" transform="translate(-17.96 80.497)" fill="#b7281d"/><path d="M403.661,163.473V136.392H48.281l-5.472,27.082Z" transform="translate(-23.127 138.423)" fill="#00649e"/><rect width="51.487" height="43.718" transform="translate(291.942 90.202)" fill="#00649e"/><rect width="51.487" height="26.72" transform="translate(291.942 45.681)" fill="#00649e"/><rect width="51.487" height="17.801" transform="translate(291.942 72.401)" fill="#e54b42"/><rect width="103.992" height="56.893" transform="translate(276.541 133.92)" fill="#e54b42"/><rect width="103.992" height="56.903" transform="translate(276.541 190.813)" fill="#b7281d"/><rect width="57.494" height="56.893" transform="translate(219.047 133.92)" fill="#20ae76"/><rect width="57.494" height="56.903" transform="translate(219.047 190.813)" fill="#18855a"/><path d="M173.347,64.26H54.389v91.475h132.8Z" transform="translate(2.597 -21.815)" fill="#92ceff"/><rect width="11.234" height="43.718" transform="translate(236.565 90.202)" fill="#ffdf5a"/><rect width="11.22" height="43.718" transform="translate(247.799 90.202)" fill="#eab828"/><path d="M154.824,92.655V206.434c4.655,0,9.007-2.816,12.754-7.664V100.335C163.831,95.483,159.479,92.655,154.824,92.655Z" transform="translate(225.709 41.264)" fill="#00649e"/><path d="M158.783,95.039v98.435c7.612-9.845,12.747-28.175,12.747-49.221S166.4,104.877,158.783,95.039Z" transform="translate(234.504 46.56)" fill="#5698d8"/><path d="M119.931,51.084c-27.556,0-52.555,4.31-69.352,11.1H189.346C172.53,55.394,147.484,51.084,119.931,51.084Z" transform="translate(-5.867 -51.084)" fill="#ffdf5a"/><path d="M45.078,65.635H219.307c-3.647-4.13-9.79-7.9-17.741-11.1H62.8C54.858,57.74,48.738,61.505,45.078,65.635Z" transform="translate(-18.087 -43.427)" fill="#eab828"/><path d="M217.18,171.773l-22.7-35.381H154.824v56.169h75.7Z" transform="translate(225.709 138.423)" fill="#00649e"/><path d="M420.8,127.979H45.169l-.049,27.239,353.407-.14H438.18Z" transform="translate(-17.994 119.736)" fill="#5698d8"/><path d="M131.943,133.037a63.482,63.482,0,1,0,23.249,86.725A63.457,63.457,0,0,0,131.943,133.037Zm2.587,60.686a33.853,33.853,0,0,1-12.245,21.126,34.753,34.753,0,0,1-9.871,5.705A33.719,33.719,0,0,1,88,220.574a35.027,35.027,0,0,1-5.209-2.39,36,36,0,0,1-4.7-3.292,34.469,34.469,0,0,1-11.526-17.844c-.3-1.111-.538-2.226-.725-3.347a34.375,34.375,0,0,1,.019-11.372,34.936,34.936,0,0,1,4.191-11.739,33.975,33.975,0,0,1,8.086-9.413,34.2,34.2,0,0,1,34.292-5.721,33.8,33.8,0,0,1,5.2,2.384,34.743,34.743,0,0,1,16.906,35.884Z" transform="translate(-36.7 112.058)" fill="#eab828"/><path d="M102.533,141.385a34.729,34.729,0,0,0-4.681-3.3,33.8,33.8,0,0,0-5.2-2.384,34.811,34.811,0,0,0-34.292,5.721,33.974,33.974,0,0,0-8.086,9.413,34.936,34.936,0,0,0-4.191,11.739,34.375,34.375,0,0,0-.019,11.372c.187,1.121.425,2.236.725,3.347a34.469,34.469,0,0,0,11.526,17.844,36,36,0,0,0,4.7,3.292,35.029,35.029,0,0,0,5.209,2.39,33.719,33.719,0,0,0,24.419-.019,34.753,34.753,0,0,0,9.871-5.705,34.812,34.812,0,0,0,12.274-32.521A34.8,34.8,0,0,0,102.533,141.385Z" transform="translate(-16.928 131.811)" fill="#b7281d"/><path d="M160.155,138.057a53.166,53.166,0,1,0,19.454,72.621A53.246,53.246,0,0,0,160.155,138.057Zm2.162,50.815a28.363,28.363,0,0,1-10.26,17.705,29.173,29.173,0,0,1-8.266,4.771,28.224,28.224,0,0,1-20.443.013,29.246,29.246,0,0,1-4.359-2,30.179,30.179,0,0,1-3.933-2.754,28.993,28.993,0,0,1-9.668-14.941c-.238-.931-.445-1.875-.606-2.8a29.448,29.448,0,0,1,.023-9.526,28.623,28.623,0,0,1,10.283-17.724,29.319,29.319,0,0,1,8.279-4.774,28.122,28.122,0,0,1,20.434-.01,28.626,28.626,0,0,1,4.359,2,29.095,29.095,0,0,1,14.158,30.043Z" transform="translate(60.355 126.299)" fill="#eab828"/><path d="M135.515,145.053a28.954,28.954,0,0,0-3.917-2.761,28.63,28.63,0,0,0-4.359-2,29.159,29.159,0,0,0-28.713,4.784A28.623,28.623,0,0,0,88.243,162.8a29.447,29.447,0,0,0-.023,9.526c.161.928.367,1.872.606,2.8a28.993,28.993,0,0,0,9.668,14.941,30.18,30.18,0,0,0,3.933,2.754,29.243,29.243,0,0,0,4.359,2,28.224,28.224,0,0,0,20.443-.013,29.174,29.174,0,0,0,8.266-4.771,28.363,28.363,0,0,0,10.26-17.705,28.982,28.982,0,0,0-10.241-27.283Z" transform="translate(76.916 142.836)" fill="#b7281d"/><path d="M197.883,138.057a53.163,53.163,0,1,0,19.461,72.621A53.216,53.216,0,0,0,197.883,138.057Zm2.155,50.815a28.951,28.951,0,0,1-3.473,9.813,28.655,28.655,0,0,1-6.775,7.893,29.368,29.368,0,0,1-8.269,4.771,28.224,28.224,0,0,1-20.443.013,29.147,29.147,0,0,1-4.362-2,30.4,30.4,0,0,1-3.933-2.754,28.922,28.922,0,0,1-9.661-14.941c-.238-.931-.441-1.875-.609-2.8a28.741,28.741,0,0,1,.023-9.526,29.1,29.1,0,0,1,3.511-9.832,28.754,28.754,0,0,1,6.771-7.893,29.329,29.329,0,0,1,8.273-4.774,29.047,29.047,0,0,1,38.947,32.031Z" transform="translate(144.172 126.299)" fill="#eab828"/><path d="M173.253,145.053a28.751,28.751,0,0,0-3.917-2.761,29.244,29.244,0,0,0-33.071,2.787,28.754,28.754,0,0,0-6.771,7.893,29.1,29.1,0,0,0-3.511,9.832,28.741,28.741,0,0,0-.023,9.526c.168.928.37,1.872.609,2.8a28.922,28.922,0,0,0,9.661,14.941,30.4,30.4,0,0,0,3.933,2.754,29.142,29.142,0,0,0,4.362,2,28.224,28.224,0,0,0,20.443-.013,29.369,29.369,0,0,0,8.269-4.771,28.657,28.657,0,0,0,6.775-7.893,29.131,29.131,0,0,0-6.759-37.1Z" transform="translate(160.727 142.836)" fill="#b7281d"/></g></g></svg>