<svg width="20" height="20" viewBox="0 0 20 20" fill="none" xmlns="http://www.w3.org/2000/svg">
<path d="M15.6637 7.49218C15.672 7.60155 15.672 7.71094 15.672 7.82031C15.672 11.1562 12.9912 15 8.09139 15C6.58186 15 5.17958 14.5859 4 13.8672C4.21448 13.8906 4.42067 13.8984 4.6434 13.8984C5.88894 13.8984 7.03554 13.5 7.95115 12.8203C6.77983 12.7969 5.79822 12.0703 5.46002 11.0703C5.62501 11.0937 5.78997 11.1094 5.96321 11.1094C6.20242 11.1094 6.44165 11.0781 6.66435 11.0234C5.44354 10.789 4.5279 9.77343 4.5279 8.54687V8.51563C4.88258 8.70313 5.29505 8.82032 5.73221 8.83593C5.01456 8.38279 4.5444 7.60936 4.5444 6.73436C4.5444 6.26562 4.67636 5.83593 4.90734 5.46093C6.2189 6.99217 8.19036 7.99216 10.401 8.10155C10.3598 7.91405 10.335 7.71876 10.335 7.52344C10.335 6.1328 11.5228 5 12.9994 5C13.7665 5 14.4594 5.30469 14.9461 5.79687C15.5482 5.6875 16.1256 5.47656 16.6371 5.1875C16.4391 5.77345 16.0184 6.26564 15.4657 6.57812C16.0019 6.52346 16.5216 6.3828 17 6.18751C16.6371 6.68749 16.1834 7.13278 15.6637 7.49218V7.49218Z" fill="white"/>
</svg>
