<svg xmlns="http://www.w3.org/2000/svg" xmlns:xlink="http://www.w3.org/1999/xlink" width="318" height="391" viewBox="0 0 318 391"><defs><clipPath id="b"><rect width="318" height="391"/></clipPath></defs><g id="a" clip-path="url(#b)"><g transform="translate(-253.473 -620.141)"><path d="M330.3,675.635l1.438-31.66H275.256l1.9,31.66Z" transform="translate(43.931 40.612)" fill="#5698d8"/><path d="M298.846,643.976H249.473v31.66h51.852Z" transform="translate(0 40.612)" fill="#5698d8"/><path d="M256.793,655.684l31.653,174.124h14.025l-13.62-174.124Z" transform="translate(12.473 60.563)" fill="#ffdf5a"/><path d="M275.958,655.684l10.417,174.124h34.8L329.1,655.684Z" transform="translate(45.128 60.563)" fill="#ffdf5a"/><path d="M378.334,675.635h19.793v-31.66H297.05l-1.438,31.66Z" transform="translate(78.618 40.612)" fill="#00649e"/><path d="M383.329,655.684H300.608l-7.927,174.124h59Z" transform="translate(73.622 60.563)" fill="#eab828"/><path d="M289.973,675.635l-1.9-31.66H267.733l2.479,31.66Z" transform="translate(31.113 40.612)" fill="#92ceff"/><path d="M268.65,655.684l13.62,174.124h16.557L288.41,655.684Z" transform="translate(32.675 60.563)" fill="#fff4be"/><path d="M354.914,749.526c-55.49,0-100.631-42.094-100.631-93.842h13.571c0,44.258,39.055,80.273,87.06,80.273s87.06-36.016,87.06-80.273h13.568C455.543,707.432,410.4,749.526,354.914,749.526Z" transform="translate(8.196 60.564)" fill="#b7281d"/><path d="M435.105,678.739a92.563,92.563,0,0,0-47.843-55.165c-20.49,24.176-58.461,40.467-102.032,40.467a170.262,170.262,0,0,1-19.49-1.2,92.1,92.1,0,0,0-6.822,15.9Z" transform="translate(16.095 5.85)" fill="#eab828"/><path d="M382.964,629.423a92.192,92.192,0,0,0-121.522,39.263,170.276,170.276,0,0,0,19.49,1.2C324.5,669.89,362.473,653.6,382.964,629.423Z" transform="translate(20.394)" fill="#ffdf5a"/><rect width="170.978" height="24.673" transform="matrix(0.707, -0.707, 0.707, 0.707, 368.879, 915.182)" fill="#e54b42"/><path d="M346.374,745.933c-20.815-20.825-19.292-56.241,3.42-78.951l6.289-6.287L431.6,736.223l-6.281,6.281C402.6,765.212,367.2,766.742,346.374,745.933Zm10.313-59.491c-10.232,15.3-9.748,34.924,2.25,46.913s31.625,12.495,46.921,2.25Z" transform="translate(140.123 69.1)" fill="#b7281d"/><path d="M350.341,742.5c22.334,22.323,20.374,60.443-4.383,85.205l-80.82-80.825C289.895,722.125,328.006,720.154,350.341,742.5Z" transform="translate(26.691 181.988)" fill="#e54b42"/><path d="M345.958,842.088c24.757-24.762,26.717-62.882,4.383-85.205-22.334-22.345-60.446-20.374-85.2,4.38l35.483-35.48a24.842,24.842,0,0,1,35.132,0l45.688,45.69a24.845,24.845,0,0,1,0,35.135Z" transform="translate(26.691 167.604)" fill="#b7281d"/></g></g></svg>